<?xml version="1.0" encoding="UTF-8" standalone="no"?>
<!DOCTYPE svg PUBLIC "-//W3C//DTD SVG 1.1//EN" "http://www.w3.org/Graphics/SVG/1.1/DTD/svg11.dtd">
<svg width="100%" height="100%" viewBox="0 0 57 34" version="1.1" xmlns="http://www.w3.org/2000/svg" xmlns:xlink="http://www.w3.org/1999/xlink" xml:space="preserve" xmlns:serif="http://www.serif.com/" style="fill-rule:evenodd;clip-rule:evenodd;stroke-linejoin:round;stroke-miterlimit:2;">
    <g transform="matrix(1,0,0,1,-51.2002,-50.2352)">
        <g transform="matrix(0.332289,0,0,0.332289,215.771,30.7376)">
            <g transform="matrix(0.551665,0,0,0.551665,-533.861,48.6698)">
                <g transform="matrix(87.6824,-10.9726,0,87.6824,83.0215,106.976)">
                    <path d="M-0.149,0.067C-0.139,0.069 -0.13,0.07 -0.122,0.07C-0.097,0.07 -0.074,0.063 -0.052,0.051C-0.016,0.03 0.007,0.004 0.018,-0.027L0.198,-0.591C0.121,-0.575 0.07,-0.514 0.045,-0.408C0.015,-0.448 0,-0.487 0,-0.524C0,-0.548 0.006,-0.571 0.018,-0.594C0.049,-0.653 0.111,-0.688 0.206,-0.7C0.212,-0.701 0.218,-0.701 0.224,-0.701C0.234,-0.701 0.243,-0.7 0.253,-0.699C0.262,-0.698 0.27,-0.692 0.278,-0.683C0.286,-0.673 0.293,-0.662 0.299,-0.649C0.306,-0.636 0.31,-0.625 0.314,-0.615C0.317,-0.606 0.319,-0.6 0.319,-0.597L0.319,-0.597L0.154,-0.053C0.114,0.071 0.053,0.134 -0.029,0.135C-0.074,0.135 -0.113,0.112 -0.149,0.067Z" style="fill:rgb(194,24,35);fill-rule:nonzero;"/>
                </g>
                <g transform="matrix(87.6824,-10.9726,0,87.6824,105.113,104.212)">
                    <path d="M0.041,-0.049C0.022,-0.078 0.013,-0.112 0.013,-0.151C0.013,-0.161 0.014,-0.171 0.015,-0.182C0.021,-0.234 0.038,-0.282 0.066,-0.326C0.071,-0.29 0.095,-0.259 0.135,-0.234C0.126,-0.2 0.122,-0.168 0.122,-0.14C0.122,-0.127 0.123,-0.114 0.125,-0.103C0.131,-0.077 0.142,-0.064 0.157,-0.064L0.164,-0.063C0.173,-0.063 0.182,-0.068 0.191,-0.078C0.212,-0.102 0.228,-0.135 0.239,-0.176C0.25,-0.218 0.255,-0.253 0.255,-0.282C0.255,-0.294 0.254,-0.306 0.252,-0.317C0.246,-0.343 0.235,-0.356 0.219,-0.356L0.218,-0.356C0.217,-0.357 0.215,-0.357 0.213,-0.357C0.204,-0.357 0.195,-0.352 0.185,-0.342C0.179,-0.337 0.176,-0.332 0.176,-0.327C0.176,-0.326 0.176,-0.325 0.176,-0.324C0.178,-0.319 0.182,-0.314 0.188,-0.309C0.195,-0.304 0.201,-0.3 0.209,-0.296C0.216,-0.292 0.222,-0.288 0.226,-0.285C0.233,-0.278 0.237,-0.27 0.237,-0.262C0.237,-0.26 0.237,-0.258 0.236,-0.256C0.234,-0.244 0.229,-0.235 0.222,-0.229C0.215,-0.222 0.208,-0.219 0.201,-0.219C0.199,-0.219 0.196,-0.219 0.193,-0.22C0.172,-0.229 0.154,-0.24 0.14,-0.251C0.104,-0.28 0.086,-0.307 0.086,-0.333C0.086,-0.344 0.09,-0.355 0.097,-0.366C0.108,-0.377 0.12,-0.386 0.132,-0.395C0.159,-0.411 0.186,-0.42 0.214,-0.42C0.217,-0.42 0.22,-0.42 0.223,-0.419C0.228,-0.42 0.233,-0.42 0.237,-0.42C0.277,-0.42 0.31,-0.404 0.336,-0.372C0.354,-0.34 0.364,-0.306 0.364,-0.267C0.364,-0.242 0.36,-0.216 0.352,-0.188C0.333,-0.117 0.297,-0.063 0.244,-0.025C0.217,-0.009 0.189,-0 0.161,-0L0.153,-0C0.149,-0 0.144,-0 0.14,-0C0.1,-0 0.067,-0.016 0.041,-0.049Z" style="fill:rgb(194,24,35);fill-rule:nonzero;"/>
                </g>
                <g transform="matrix(87.6824,-10.9726,0,87.6824,139.407,99.9203)">
                    <path d="M0.367,-0.364C0.373,-0.355 0.375,-0.343 0.375,-0.329C0.375,-0.317 0.372,-0.298 0.366,-0.274C0.36,-0.249 0.349,-0.217 0.334,-0.176C0.322,-0.143 0.312,-0.112 0.303,-0.081C0.296,-0.056 0.292,-0.034 0.292,-0.015C0.292,-0.011 0.292,-0.007 0.292,-0.003C0.25,-0.012 0.22,-0.029 0.201,-0.053C0.191,-0.065 0.186,-0.08 0.186,-0.099C0.186,-0.116 0.19,-0.136 0.199,-0.159L0.263,-0.331L0.116,-0.142L0.073,-0C0.039,-0.011 0.015,-0.027 -0,-0.047C-0.008,-0.057 -0.011,-0.07 -0.011,-0.087C-0.011,-0.106 -0.007,-0.13 0.001,-0.157C0.009,-0.182 0.025,-0.234 0.05,-0.313C0.074,-0.393 0.097,-0.472 0.119,-0.55C0.141,-0.628 0.153,-0.678 0.154,-0.699C0.216,-0.689 0.248,-0.658 0.248,-0.604C0.248,-0.586 0.244,-0.565 0.237,-0.542L0.164,-0.299L0.24,-0.399C0.252,-0.413 0.265,-0.42 0.28,-0.42C0.315,-0.419 0.344,-0.401 0.367,-0.364Z" style="fill:rgb(194,24,35);fill-rule:nonzero;"/>
                </g>
                <g transform="matrix(87.6824,-10.9726,0,87.6824,172.802,95.7413)">
                    <path d="M0.325,-0.358C0.259,-0.34 0.204,-0.305 0.161,-0.253C0.119,-0.201 0.096,-0.146 0.093,-0.09C0.093,-0.082 0.095,-0.077 0.098,-0.076C0.102,-0.075 0.104,-0.074 0.106,-0.074C0.109,-0.074 0.112,-0.076 0.116,-0.079C0.163,-0.137 0.217,-0.216 0.278,-0.315C0.308,-0.302 0.328,-0.287 0.339,-0.272C0.35,-0.257 0.355,-0.243 0.355,-0.23C0.355,-0.219 0.352,-0.207 0.347,-0.194L0.281,-0L0.25,-0.019C0.248,-0.02 0.246,-0.021 0.244,-0.022C0.233,-0.03 0.224,-0.037 0.218,-0.045C0.211,-0.053 0.208,-0.063 0.208,-0.075C0.208,-0.078 0.208,-0.081 0.208,-0.084C0.21,-0.1 0.219,-0.123 0.234,-0.153L0.175,-0.049C0.155,-0.018 0.137,-0.003 0.121,-0.002C0.105,-0.001 0.097,-0 0.096,-0C0.059,-0 0.033,-0.017 0.018,-0.049C0.006,-0.073 0,-0.1 0,-0.128C0,-0.16 0.007,-0.195 0.021,-0.232C0.049,-0.303 0.09,-0.357 0.146,-0.395C0.176,-0.411 0.204,-0.42 0.232,-0.42C0.239,-0.42 0.245,-0.419 0.251,-0.418C0.285,-0.414 0.309,-0.394 0.325,-0.358Z" style="fill:rgb(194,24,35);fill-rule:nonzero;"/>
                </g>
                <g transform="matrix(87.6824,-10.9726,0,87.6824,206.239,91.5569)">
                    <path d="M0.088,-0C0.053,-0.007 0.027,-0.02 0.012,-0.038C-0.003,-0.056 -0.011,-0.076 -0.011,-0.097C-0.011,-0.111 -0.009,-0.126 -0.004,-0.143L0.084,-0.419C0.12,-0.408 0.145,-0.395 0.156,-0.38C0.168,-0.366 0.174,-0.351 0.174,-0.335C0.174,-0.316 0.169,-0.292 0.158,-0.263L0.238,-0.399C0.249,-0.413 0.262,-0.42 0.277,-0.42C0.283,-0.42 0.29,-0.418 0.298,-0.416C0.321,-0.407 0.343,-0.389 0.364,-0.364C0.37,-0.354 0.373,-0.342 0.373,-0.328C0.373,-0.316 0.371,-0.303 0.367,-0.288C0.359,-0.253 0.347,-0.216 0.332,-0.176C0.32,-0.143 0.309,-0.112 0.301,-0.084C0.293,-0.056 0.289,-0.033 0.289,-0.013C0.289,-0.01 0.289,-0.006 0.29,-0.003C0.248,-0.012 0.22,-0.025 0.205,-0.043C0.191,-0.062 0.184,-0.08 0.184,-0.099C0.184,-0.116 0.188,-0.136 0.197,-0.159L0.264,-0.352L0.122,-0.125C0.12,-0.117 0.116,-0.102 0.11,-0.081C0.105,-0.067 0.101,-0.052 0.097,-0.037C0.092,-0.023 0.09,-0.01 0.088,-0Z" style="fill:rgb(194,24,35);fill-rule:nonzero;"/>
                </g>
                <g transform="matrix(87.6824,-10.9726,0,87.6824,239.334,87.4154)">
                    <path d="M0.378,-0.699C0.44,-0.689 0.471,-0.658 0.471,-0.604C0.471,-0.586 0.468,-0.565 0.461,-0.542L0.297,-0C0.268,-0.01 0.245,-0.022 0.228,-0.036C0.215,-0.047 0.208,-0.064 0.208,-0.085C0.208,-0.091 0.208,-0.098 0.209,-0.104L0.178,-0.049C0.158,-0.018 0.132,-0.002 0.103,-0L0.099,-0C0.07,-0 0.044,-0.017 0.021,-0.049C0.007,-0.076 0,-0.107 0,-0.14C0,-0.252 0.044,-0.337 0.131,-0.395C0.158,-0.412 0.182,-0.42 0.204,-0.42C0.236,-0.42 0.262,-0.4 0.28,-0.358C0.216,-0.34 0.169,-0.305 0.14,-0.253C0.112,-0.201 0.097,-0.146 0.096,-0.09C0.096,-0.082 0.098,-0.077 0.104,-0.075C0.106,-0.075 0.107,-0.074 0.109,-0.074C0.112,-0.074 0.115,-0.076 0.119,-0.079C0.162,-0.133 0.211,-0.204 0.267,-0.293C0.283,-0.345 0.299,-0.4 0.316,-0.458C0.333,-0.515 0.348,-0.567 0.36,-0.612C0.372,-0.657 0.378,-0.686 0.378,-0.699Z" style="fill:rgb(194,24,35);fill-rule:nonzero;"/>
                </g>
                <g transform="matrix(87.6824,-10.9726,0,87.6824,274.27,83.0435)">
                    <path d="M0.001,-0.158L0.035,-0.257C0.057,-0.317 0.069,-0.369 0.069,-0.411L0.069,-0.419C0.107,-0.41 0.133,-0.398 0.147,-0.381C0.161,-0.364 0.168,-0.347 0.168,-0.33C0.168,-0.314 0.165,-0.297 0.157,-0.276L0.073,0C0.039,-0.011 0.017,-0.024 0.006,-0.039C-0.006,-0.054 -0.011,-0.07 -0.011,-0.087C-0.011,-0.106 -0.007,-0.13 0.001,-0.158Z" style="fill:rgb(194,24,35);"/>
                </g>
                <g transform="matrix(87.6824,-10.9726,0,87.6824,274.27,83.0435)">
                    <path d="M0.221,-0.551C0.23,-0.543 0.234,-0.533 0.234,-0.522C0.234,-0.511 0.23,-0.499 0.223,-0.486C0.207,-0.465 0.19,-0.449 0.173,-0.438C0.162,-0.432 0.153,-0.429 0.145,-0.429C0.127,-0.429 0.113,-0.442 0.104,-0.468C0.1,-0.48 0.099,-0.492 0.099,-0.503C0.099,-0.516 0.101,-0.528 0.104,-0.541C0.112,-0.564 0.126,-0.576 0.147,-0.578L0.151,-0.578C0.177,-0.578 0.2,-0.569 0.221,-0.551Z" style="fill:rgb(194,24,35);"/>
                </g>
                <g transform="matrix(87.6824,-10.9726,0,87.6824,288.784,81.2272)">
                    <path d="M0.178,-0.046C0.153,-0.073 0.132,-0.105 0.116,-0.144L0.073,-0.002C0.039,-0.013 0.017,-0.026 0.006,-0.041C-0.006,-0.056 -0.011,-0.072 -0.011,-0.089C-0.011,-0.108 -0.007,-0.131 0.001,-0.159C0.009,-0.183 0.025,-0.236 0.05,-0.315C0.074,-0.394 0.097,-0.473 0.119,-0.552C0.141,-0.63 0.153,-0.679 0.154,-0.7C0.216,-0.691 0.248,-0.659 0.248,-0.605C0.248,-0.588 0.244,-0.567 0.237,-0.544L0.187,-0.377C0.22,-0.407 0.256,-0.422 0.295,-0.422C0.316,-0.419 0.332,-0.41 0.345,-0.395C0.366,-0.368 0.376,-0.342 0.376,-0.315C0.376,-0.295 0.371,-0.276 0.359,-0.256C0.332,-0.21 0.285,-0.176 0.217,-0.154C0.256,-0.104 0.299,-0.066 0.347,-0.04C0.327,-0.013 0.304,-0 0.276,-0C0.273,-0 0.27,-0 0.267,-0C0.236,-0.004 0.206,-0.019 0.178,-0.046ZM0.19,-0.238C0.226,-0.245 0.258,-0.267 0.285,-0.303C0.295,-0.317 0.3,-0.333 0.301,-0.35C0.301,-0.36 0.296,-0.365 0.285,-0.365C0.242,-0.364 0.201,-0.334 0.162,-0.276C0.152,-0.26 0.151,-0.249 0.159,-0.242C0.163,-0.239 0.169,-0.237 0.177,-0.237C0.181,-0.237 0.185,-0.237 0.19,-0.238Z" style="fill:rgb(194,24,35);fill-rule:nonzero;"/>
                </g>
                <g transform="matrix(87.6824,-10.9726,0,87.6824,321.536,77.1285)">
                    <path d="M0.325,-0.358C0.259,-0.34 0.204,-0.305 0.161,-0.253C0.119,-0.201 0.096,-0.146 0.093,-0.09C0.093,-0.082 0.095,-0.077 0.098,-0.076C0.102,-0.075 0.104,-0.074 0.106,-0.074C0.109,-0.074 0.112,-0.076 0.116,-0.079C0.163,-0.137 0.217,-0.216 0.278,-0.315C0.308,-0.302 0.328,-0.287 0.339,-0.272C0.35,-0.257 0.355,-0.243 0.355,-0.23C0.355,-0.219 0.352,-0.207 0.347,-0.194L0.281,-0L0.25,-0.019C0.248,-0.02 0.246,-0.021 0.244,-0.022C0.233,-0.03 0.224,-0.037 0.218,-0.045C0.211,-0.053 0.208,-0.063 0.208,-0.075C0.208,-0.078 0.208,-0.081 0.208,-0.084C0.21,-0.1 0.219,-0.123 0.234,-0.153L0.175,-0.049C0.155,-0.018 0.137,-0.003 0.121,-0.002C0.105,-0.001 0.097,-0 0.096,-0C0.059,-0 0.033,-0.017 0.018,-0.049C0.006,-0.073 0,-0.1 0,-0.128C0,-0.16 0.007,-0.195 0.021,-0.232C0.049,-0.303 0.09,-0.357 0.146,-0.395C0.176,-0.411 0.204,-0.42 0.232,-0.42C0.239,-0.42 0.245,-0.419 0.251,-0.418C0.285,-0.414 0.309,-0.394 0.325,-0.358Z" style="fill:rgb(194,24,35);fill-rule:nonzero;"/>
                </g>
            </g>
            <g transform="matrix(0.551665,0,0,0.551665,-533.861,48.6698)">
                <g transform="matrix(87.6824,-10.9726,0,87.6824,118.546,165.418)">
                    <path d="M0.018,-0.196C0.034,-0.169 0.055,-0.152 0.08,-0.145C0.105,-0.138 0.122,-0.135 0.13,-0.135C0.165,-0.135 0.203,-0.153 0.243,-0.189C0.25,-0.197 0.253,-0.206 0.253,-0.215L0.253,-0.219C0.253,-0.229 0.245,-0.24 0.23,-0.25L0.084,-0.348C0.053,-0.369 0.034,-0.389 0.025,-0.407C0.017,-0.425 0.013,-0.438 0.013,-0.448C0.013,-0.47 0.022,-0.494 0.041,-0.521C0.126,-0.639 0.225,-0.699 0.336,-0.7C0.358,-0.698 0.377,-0.694 0.393,-0.688C0.428,-0.665 0.446,-0.634 0.446,-0.592C0.446,-0.555 0.431,-0.509 0.402,-0.456C0.389,-0.431 0.364,-0.418 0.329,-0.418C0.308,-0.418 0.292,-0.426 0.28,-0.442C0.28,-0.444 0.279,-0.445 0.279,-0.446C0.279,-0.447 0.279,-0.448 0.28,-0.449C0.28,-0.451 0.281,-0.453 0.282,-0.455C0.284,-0.457 0.284,-0.458 0.285,-0.459C0.331,-0.521 0.355,-0.564 0.356,-0.591C0.358,-0.617 0.35,-0.63 0.333,-0.63L0.33,-0.63C0.256,-0.626 0.19,-0.573 0.132,-0.47C0.121,-0.452 0.147,-0.423 0.209,-0.383C0.277,-0.341 0.323,-0.307 0.347,-0.28C0.371,-0.253 0.383,-0.228 0.383,-0.203C0.383,-0.186 0.379,-0.168 0.371,-0.149C0.357,-0.118 0.328,-0.087 0.281,-0.059C0.235,-0.03 0.197,-0.013 0.166,-0.008C0.135,-0.003 0.114,-0 0.104,-0C0.069,-0 0.042,-0.011 0.021,-0.032C0.007,-0.047 0,-0.069 0,-0.097C0,-0.124 0.006,-0.157 0.018,-0.196Z" style="fill:white;fill-rule:nonzero;"/>
                </g>
                <g transform="matrix(87.6824,-10.9726,0,87.6824,155.066,160.848)">
                    <path d="M0.017,-0.026C0.009,-0.035 0.004,-0.045 0.004,-0.056C0.004,-0.066 0.008,-0.078 0.016,-0.09C0.031,-0.111 0.047,-0.127 0.064,-0.138C0.074,-0.144 0.084,-0.147 0.092,-0.147C0.109,-0.147 0.123,-0.134 0.132,-0.108C0.135,-0.097 0.136,-0.086 0.136,-0.075C0.136,-0.062 0.134,-0.049 0.13,-0.037C0.123,-0.014 0.109,-0.002 0.089,-0L0.086,-0C0.061,-0 0.038,-0.009 0.017,-0.026Z" style="fill:white;fill-rule:nonzero;"/>
                </g>
                <g transform="matrix(87.6824,-10.9726,0,87.6824,167.953,159.235)">
                    <path d="M0.553,0.02C0.555,0.028 0.555,0.036 0.555,0.045C0.555,0.063 0.551,0.083 0.543,0.105C0.536,0.127 0.519,0.143 0.493,0.154C0.483,0.158 0.472,0.16 0.46,0.16C0.439,0.16 0.413,0.154 0.384,0.142C0.35,0.125 0.316,0.109 0.283,0.092C0.215,0.044 0.159,0.013 0.116,-0.001C0.102,-0.006 0.089,-0.008 0.078,-0.008C0.056,-0.008 0.04,0.001 0.03,0.02C0.027,0.005 0.025,-0.008 0.025,-0.019C0.025,-0.042 0.031,-0.059 0.043,-0.072C0.058,-0.086 0.078,-0.094 0.103,-0.094C0.109,-0.094 0.116,-0.093 0.123,-0.092L0.123,-0.094C0.123,-0.111 0.127,-0.134 0.135,-0.161L0.271,-0.591C0.194,-0.574 0.142,-0.513 0.117,-0.408C0.087,-0.447 0.072,-0.486 0.072,-0.524C0.072,-0.63 0.141,-0.689 0.277,-0.7C0.284,-0.7 0.29,-0.7 0.296,-0.7C0.306,-0.7 0.316,-0.7 0.325,-0.699C0.334,-0.697 0.342,-0.692 0.35,-0.682C0.358,-0.672 0.365,-0.661 0.371,-0.648C0.378,-0.636 0.383,-0.624 0.386,-0.614C0.389,-0.605 0.391,-0.6 0.391,-0.597L0.391,-0.597L0.222,-0.057C0.304,-0.012 0.371,0.016 0.421,0.028C0.442,0.032 0.461,0.035 0.479,0.035C0.507,0.035 0.531,0.03 0.553,0.02Z" style="fill:white;fill-rule:nonzero;"/>
                </g>
                <g transform="matrix(87.6824,-10.9726,0,87.6824,167.953,159.235)">
                    <path d="M0.553,0.02C0.555,0.028 0.555,0.036 0.555,0.045C0.555,0.063 0.551,0.083 0.543,0.105C0.536,0.127 0.519,0.143 0.493,0.154C0.483,0.158 0.472,0.16 0.46,0.16C0.439,0.16 0.413,0.154 0.384,0.142C0.35,0.125 0.316,0.109 0.283,0.092C0.215,0.044 0.159,0.013 0.116,-0.001C0.102,-0.006 0.089,-0.008 0.078,-0.008C0.056,-0.008 0.04,0.001 0.03,0.02C0.027,0.005 0.025,-0.008 0.025,-0.019C0.025,-0.042 0.031,-0.059 0.043,-0.072C0.058,-0.086 0.078,-0.094 0.103,-0.094C0.109,-0.094 0.116,-0.093 0.123,-0.092L0.123,-0.094C0.123,-0.111 0.127,-0.134 0.135,-0.161L0.271,-0.591C0.194,-0.574 0.142,-0.513 0.117,-0.408C0.087,-0.447 0.072,-0.486 0.072,-0.524C0.072,-0.63 0.141,-0.689 0.277,-0.7C0.284,-0.7 0.29,-0.7 0.296,-0.7C0.306,-0.7 0.316,-0.7 0.325,-0.699C0.334,-0.697 0.342,-0.692 0.35,-0.682C0.358,-0.672 0.365,-0.661 0.371,-0.648C0.378,-0.636 0.383,-0.624 0.386,-0.614C0.389,-0.605 0.391,-0.6 0.391,-0.597L0.391,-0.597L0.222,-0.057C0.304,-0.012 0.371,0.016 0.421,0.028C0.442,0.032 0.461,0.035 0.479,0.035C0.507,0.035 0.531,0.03 0.553,0.02Z" style="fill:white;fill-rule:nonzero;"/>
                </g>
                <g transform="matrix(87.6824,-10.9726,0,87.6824,195.867,155.742)">
                    <path d="M0.269,-0.42C0.303,-0.412 0.328,-0.4 0.341,-0.382C0.355,-0.365 0.361,-0.346 0.361,-0.327C0.361,-0.312 0.359,-0.296 0.353,-0.277L0.268,-0C0.232,-0.012 0.208,-0.025 0.197,-0.039C0.187,-0.053 0.181,-0.068 0.181,-0.083C0.181,-0.102 0.187,-0.127 0.199,-0.157L0.119,-0.021C0.108,-0.007 0.095,-0 0.081,-0C0.075,-0 0.068,-0.001 0.062,-0.004C0.039,-0.013 0.018,-0.03 -0.003,-0.056C-0.009,-0.065 -0.012,-0.077 -0.012,-0.091C-0.012,-0.103 -0.01,-0.117 -0.006,-0.132C0.003,-0.166 0.014,-0.203 0.029,-0.244C0.042,-0.277 0.052,-0.307 0.06,-0.335C0.068,-0.363 0.072,-0.386 0.072,-0.405C0.072,-0.409 0.072,-0.413 0.071,-0.417C0.113,-0.408 0.14,-0.394 0.154,-0.376C0.167,-0.358 0.174,-0.34 0.174,-0.323C0.174,-0.305 0.169,-0.285 0.16,-0.261L0.092,-0.067L0.234,-0.294C0.236,-0.303 0.241,-0.318 0.247,-0.338C0.252,-0.353 0.256,-0.368 0.26,-0.382C0.264,-0.397 0.267,-0.41 0.269,-0.42Z" style="fill:white;fill-rule:nonzero;"/>
                </g>
                <g transform="matrix(87.6824,-10.9726,0,87.6824,227.635,151.766)">
                    <path d="M0.005,-0.159C0.013,-0.183 0.029,-0.236 0.053,-0.315C0.078,-0.394 0.101,-0.473 0.123,-0.552C0.145,-0.63 0.157,-0.679 0.158,-0.7C0.22,-0.691 0.251,-0.659 0.251,-0.605C0.251,-0.588 0.248,-0.567 0.241,-0.544L0.181,-0.345L0.182,-0.346C0.225,-0.396 0.263,-0.421 0.296,-0.421C0.323,-0.421 0.347,-0.405 0.368,-0.373C0.379,-0.348 0.385,-0.322 0.385,-0.293C0.385,-0.26 0.377,-0.224 0.362,-0.185C0.334,-0.111 0.292,-0.055 0.235,-0.017C0.215,-0.006 0.198,-0 0.184,-0C0.173,-0 0.164,-0.003 0.156,-0.008C0.137,-0.022 0.121,-0.047 0.107,-0.083C0.172,-0.1 0.218,-0.132 0.247,-0.178C0.276,-0.225 0.292,-0.276 0.293,-0.332C0.292,-0.34 0.29,-0.344 0.287,-0.345C0.284,-0.346 0.282,-0.346 0.28,-0.346C0.277,-0.346 0.274,-0.345 0.27,-0.342C0.248,-0.325 0.221,-0.294 0.19,-0.25C0.16,-0.205 0.133,-0.16 0.111,-0.115L0.077,-0.001C0.074,-0.003 0.07,-0.005 0.066,-0.006C0.033,-0.016 0.012,-0.027 0.003,-0.04C-0.007,-0.053 -0.011,-0.067 -0.011,-0.081C-0.011,-0.1 -0.006,-0.126 0.005,-0.159Z" style="fill:white;fill-rule:nonzero;"/>
                </g>
                <g transform="matrix(87.6824,-10.9726,0,87.6824,262.913,147.352)">
                    <path d="M0.001,-0.158L0.035,-0.257C0.057,-0.317 0.069,-0.369 0.069,-0.411L0.069,-0.419C0.107,-0.41 0.133,-0.398 0.147,-0.381C0.161,-0.364 0.168,-0.347 0.168,-0.33C0.168,-0.314 0.165,-0.297 0.157,-0.276L0.073,0C0.039,-0.011 0.017,-0.024 0.006,-0.039C-0.006,-0.054 -0.011,-0.07 -0.011,-0.087C-0.011,-0.106 -0.007,-0.13 0.001,-0.158Z" style="fill:white;"/>
                </g>
                <g transform="matrix(87.6824,-10.9726,0,87.6824,262.913,147.352)">
                    <path d="M0.221,-0.551C0.23,-0.543 0.234,-0.533 0.234,-0.522C0.234,-0.511 0.23,-0.499 0.223,-0.486C0.207,-0.465 0.19,-0.449 0.173,-0.437C0.162,-0.432 0.153,-0.429 0.145,-0.429C0.127,-0.429 0.113,-0.442 0.104,-0.468C0.1,-0.48 0.099,-0.492 0.099,-0.503C0.099,-0.516 0.101,-0.528 0.104,-0.541C0.112,-0.564 0.126,-0.576 0.147,-0.578L0.151,-0.578C0.177,-0.578 0.2,-0.569 0.221,-0.551Z" style="fill:white;"/>
                </g>
                <g transform="matrix(87.6824,-10.9726,0,87.6824,277.427,145.535)">
                    <path d="M-0.021,-0.11C-0.021,-0.132 -0.014,-0.147 0,-0.156C0.014,-0.164 0.028,-0.168 0.04,-0.168C0.046,-0.168 0.053,-0.167 0.06,-0.166C0.059,-0.158 0.059,-0.152 0.059,-0.145C0.059,-0.124 0.063,-0.106 0.069,-0.092C0.076,-0.076 0.088,-0.068 0.105,-0.068C0.109,-0.068 0.113,-0.068 0.117,-0.069C0.126,-0.074 0.133,-0.081 0.137,-0.09C0.142,-0.1 0.144,-0.111 0.144,-0.122C0.142,-0.134 0.122,-0.165 0.083,-0.216C0.075,-0.226 0.068,-0.236 0.06,-0.247C0.047,-0.266 0.041,-0.287 0.041,-0.309C0.041,-0.318 0.042,-0.326 0.043,-0.335C0.05,-0.367 0.066,-0.39 0.091,-0.404C0.116,-0.419 0.139,-0.426 0.16,-0.425C0.243,-0.425 0.291,-0.392 0.303,-0.327C0.31,-0.286 0.288,-0.266 0.238,-0.265C0.234,-0.265 0.231,-0.265 0.227,-0.266C0.227,-0.269 0.228,-0.273 0.228,-0.276C0.228,-0.302 0.221,-0.325 0.207,-0.343C0.197,-0.357 0.185,-0.364 0.172,-0.364C0.165,-0.364 0.158,-0.362 0.15,-0.358C0.141,-0.348 0.136,-0.338 0.136,-0.328C0.136,-0.324 0.136,-0.321 0.137,-0.317C0.142,-0.303 0.148,-0.292 0.156,-0.283C0.159,-0.28 0.162,-0.277 0.165,-0.273C0.175,-0.26 0.186,-0.247 0.198,-0.233C0.213,-0.217 0.226,-0.2 0.236,-0.182C0.248,-0.158 0.253,-0.136 0.253,-0.114C0.253,-0.103 0.252,-0.092 0.249,-0.081C0.241,-0.049 0.219,-0.026 0.185,-0.012C0.173,-0.006 0.158,-0.002 0.141,-0.001C0.124,-0 0.114,-0 0.111,-0C0.083,-0 0.055,-0.007 0.029,-0.021C0,-0.036 -0.016,-0.066 -0.021,-0.11Z" style="fill:white;fill-rule:nonzero;"/>
                </g>
                <g transform="matrix(1.81269,0,0,1.81269,967.726,-88.2235)">
                    <path d="M-431.065,142.028C-430.589,142.284 -430.096,142.559 -429.585,142.853C-429.404,142.957 -429.215,143.047 -429.021,143.123C-427.387,143.759 -425.721,144.376 -424.023,144.972C-423.94,145.001 -423.856,145.028 -423.771,145.051C-423.425,145.149 -423.086,145.234 -422.755,145.307C-428.05,146.443 -433.316,147.612 -438.528,148.806C-449.264,151.266 -459.685,153.83 -469.71,156.363C-471.368,156.92 -472.947,157.399 -474.525,157.761C-477.288,158.394 -481.788,159.13 -484.63,157.834C-483.367,155.126 -452.185,146.692 -448.001,145.733C-442.585,144.577 -436.907,143.324 -431.065,142.028ZM-410.394,137.467C-389.618,132.952 -368.301,128.662 -350.43,126.735C-343.799,125.983 -336.537,126.207 -331.169,128.105C-329.195,128.655 -325.801,129.884 -325.801,131.123C-325.801,131.477 -325.958,131.631 -326.274,131.703C-326.827,131.83 -327.616,131.657 -327.695,131.675C-333.774,131.002 -340.247,131.718 -346.562,132.398L-348.22,132.601C-368.607,134.911 -391.126,138.771 -413.523,143.369C-412.288,142.316 -411.46,141.059 -410.978,139.654C-410.716,138.889 -410.523,138.16 -410.394,137.467ZM-414.98,138.469C-415.381,139.495 -416.18,140.329 -417.376,140.972C-417.832,141.218 -418.352,141.377 -418.934,141.45C-419.974,141.58 -421.21,141.444 -422.643,141.041C-423.153,140.861 -423.66,140.68 -424.165,140.497C-421.131,139.824 -418.065,139.146 -414.98,138.469ZM-342.378,127.546C-348.457,127.316 -356.982,128.207 -367.807,129.957C-378.632,131.707 -391.756,134.315 -407.031,137.519C-379.323,132.116 -358.009,128.236 -342.378,127.546Z" style="fill:white;fill-rule:nonzero;"/>
                </g>
            </g>
        </g>
    </g>
</svg>
