<?xml version="1.0" encoding="UTF-8" standalone="no"?>
<!DOCTYPE svg PUBLIC "-//W3C//DTD SVG 1.1//EN" "http://www.w3.org/Graphics/SVG/1.1/DTD/svg11.dtd">
<svg width="100%" height="100%" viewBox="0 0 63 63" version="1.1" xmlns="http://www.w3.org/2000/svg" xmlns:xlink="http://www.w3.org/1999/xlink" xml:space="preserve" xmlns:serif="http://www.serif.com/" style="fill-rule:evenodd;clip-rule:evenodd;stroke-linejoin:round;stroke-miterlimit:2;">
    <g transform="matrix(1,0,0,1,-52.8818,-2294.36)">
        <g>
            <g transform="matrix(2.09041,0,0,1,15.9859,0)">
                <path d="M47.488,2308.26C47.488,2300.59 44.512,2294.36 40.841,2294.36L24.297,2294.36C20.626,2294.36 17.65,2300.59 17.65,2308.26L17.65,2342.84C17.65,2350.52 20.626,2356.74 24.297,2356.74L40.841,2356.74C44.512,2356.74 47.488,2350.52 47.488,2342.84L47.488,2308.26Z" style="fill:rgb(194,24,35);"/>
            </g>
            <g transform="matrix(0.824684,0,0,0.824684,-121.089,411.115)">
                <g transform="matrix(66.6667,0,0,66.6667,233.211,2339.44)">
                    <path d="M-0.149,0.067C-0.139,0.069 -0.13,0.07 -0.122,0.07C-0.097,0.07 -0.074,0.063 -0.052,0.051C-0.016,0.03 0.007,0.004 0.018,-0.027L0.198,-0.591C0.121,-0.575 0.07,-0.514 0.045,-0.408C0.015,-0.448 0,-0.487 0,-0.524C0,-0.548 0.006,-0.571 0.018,-0.594C0.049,-0.653 0.111,-0.688 0.206,-0.7C0.212,-0.701 0.218,-0.701 0.224,-0.701C0.234,-0.701 0.243,-0.7 0.253,-0.699C0.262,-0.698 0.27,-0.692 0.278,-0.683C0.286,-0.673 0.293,-0.662 0.299,-0.649C0.306,-0.636 0.31,-0.625 0.314,-0.615C0.317,-0.606 0.319,-0.6 0.319,-0.597L0.319,-0.597L0.154,-0.053C0.114,0.071 0.053,0.134 -0.029,0.135C-0.074,0.135 -0.113,0.112 -0.149,0.067Z" style="fill:white;fill-rule:nonzero;"/>
                </g>
                <g transform="matrix(66.6667,0,0,66.6667,250.008,2339.44)">
                    <path d="M0.041,-0.049C0.022,-0.078 0.013,-0.112 0.013,-0.151C0.013,-0.161 0.014,-0.171 0.015,-0.182C0.021,-0.234 0.038,-0.282 0.066,-0.326C0.071,-0.29 0.095,-0.259 0.135,-0.234C0.126,-0.2 0.122,-0.168 0.122,-0.14C0.122,-0.127 0.123,-0.114 0.125,-0.103C0.131,-0.077 0.142,-0.064 0.157,-0.064L0.164,-0.063C0.173,-0.063 0.182,-0.068 0.191,-0.078C0.212,-0.102 0.228,-0.135 0.239,-0.176C0.25,-0.218 0.255,-0.253 0.255,-0.282C0.255,-0.294 0.254,-0.306 0.252,-0.317C0.246,-0.343 0.235,-0.356 0.219,-0.356L0.218,-0.356C0.217,-0.357 0.215,-0.357 0.213,-0.357C0.204,-0.357 0.195,-0.352 0.185,-0.342C0.179,-0.337 0.176,-0.332 0.176,-0.327C0.176,-0.326 0.176,-0.325 0.176,-0.324C0.178,-0.319 0.182,-0.314 0.188,-0.309C0.195,-0.304 0.201,-0.3 0.209,-0.296C0.216,-0.292 0.222,-0.288 0.226,-0.285C0.233,-0.278 0.237,-0.27 0.237,-0.262C0.237,-0.26 0.237,-0.258 0.236,-0.256C0.234,-0.244 0.229,-0.235 0.222,-0.229C0.215,-0.222 0.208,-0.219 0.201,-0.219C0.199,-0.219 0.196,-0.219 0.193,-0.22C0.172,-0.229 0.154,-0.24 0.14,-0.251C0.104,-0.28 0.086,-0.307 0.086,-0.333C0.086,-0.344 0.09,-0.355 0.097,-0.366C0.108,-0.377 0.12,-0.386 0.132,-0.395C0.159,-0.411 0.186,-0.42 0.214,-0.42C0.217,-0.42 0.22,-0.42 0.223,-0.419C0.228,-0.42 0.233,-0.42 0.237,-0.42C0.277,-0.42 0.31,-0.404 0.336,-0.372C0.354,-0.34 0.364,-0.306 0.364,-0.267C0.364,-0.242 0.36,-0.216 0.352,-0.188C0.333,-0.117 0.297,-0.063 0.244,-0.025C0.217,-0.009 0.189,-0 0.161,-0L0.153,-0C0.149,-0 0.144,-0 0.14,-0C0.1,-0 0.067,-0.016 0.041,-0.049Z" style="fill:white;fill-rule:nonzero;"/>
                </g>
            </g>
        </g>
    </g>
</svg>
